<?xml version="1.0" encoding="utf-8"?>
<!-- Generator: Adobe Illustrator 17.1.0, SVG Export Plug-In . SVG Version: 6.00 Build 0)  -->
<!DOCTYPE svg PUBLIC "-//W3C//DTD SVG 1.1//EN" "http://www.w3.org/Graphics/SVG/1.1/DTD/svg11.dtd">
<svg version="1.1" id="Layer_1" xmlns="http://www.w3.org/2000/svg" xmlns:xlink="http://www.w3.org/1999/xlink" x="0px" y="0px"
	 viewBox="0 0 100 30" enable-background="new 0 0 100 30" xml:space="preserve">
<g id="Layer_1_1_">
</g>
<g id="Layer_2">
	<g enable-background="new    ">
		<path fill="#F1F2F2" d="M9.6,4.1c0.6,0.1,0.9,0.2,0.9,0.4c0,0,0,0,0,0v0.2l-0.1,0.1v0.3c-0.1,0.2-0.2,0.3-0.3,0.3
			c0,0.1-0.2,0.2-0.5,0.2C9.4,5.7,8.8,6.1,7.9,6.8L7.5,7.2c0.3,0.1,0.7,0.1,1.4,0.1H10c0,0,0,0,0,0l0.1,0h0.7l0.2,0c0,0,0.1,0,0.1,0
			v0l0.1,0h0.2l0.2,0l0.1,0c0,0,0.1,0,0.1,0c0,0,0,0,0,0l0.1,0h0.1c0.1,0,0.2,0,0.3,0c0,0,0.1,0,0.2,0v0l0.1,0h0.8l0.4,0l0,0.1
			l0.1,0h0.3c0.1,0,0.4,0,0.7,0v0l0.1,0H15c0,0,0.1,0,0.1,0l0.1,0c0.1,0,0.2,0,0.3,0h0c0,0,0.1,0,0.1,0c0,0,0.1,0,0.1,0
			c0.1,0,0.3,0,0.5,0v0l0.1,0c0,0,0,0,0,0l0.2,0h0.1l0.2,0c0,0,0.1,0,0.2,0c0,0,0.1,0,0.1,0l0.1,0c0,0,0.1,0,0.1,0l0.1-0.1
			c0,0,0,0.1,0,0.1c0.1-0.1,0.2-0.1,0.2-0.1l0,0.1c0.1,0,0.2-0.1,0.4-0.1h0.2l0.1,0c0,0,0-0.1,0.1-0.1h0.1c0,0,0.1,0,0.1,0.1
			c0,0,0,0,0,0c0.1,0,0.1,0,0.1,0.1c0.1-0.1,0.2-0.1,0.3-0.1c0,0,0,0.1,0.1,0.1c0,0,0-0.1,0-0.1h0.1v0.1H19v0.1
			c0.1,0,0.1-0.1,0.1-0.1h0.1c0,0.1,0,0.1,0.1,0.1h0V7.3l0.3,0v0.1h0.2c0,0,0-0.1,0-0.1c0,0,0,0,0,0l0.3,0h0l0.1,0.1h0.2
			c0.1-0.1,0.2-0.1,0.2-0.1l0.2,0h0.7v0.1c-0.1,0-0.1,0.1-0.2,0.2c0-0.1-0.1-0.1-0.2-0.1c0,0-0.1,0-0.1,0v0c0,0-0.1,0-0.1,0L21,7.5
			c-0.1,0-0.2,0-0.2-0.1h-0.1l0,0.1l-0.1,0c-0.1-0.1-0.1-0.1-0.2-0.1c-0.1,0-0.1,0.1-0.2,0.1h-0.1v0l0,0.1l-0.1,0h-0.1c0,0,0,0,0,0
			c-0.1,0-0.2,0.1-0.4,0.1h-0.2V7.6h-0.1l-0.1,0.1c0,0-0.1,0-0.1,0c-0.1,0-0.1,0.1-0.2,0.1h-0.1V7.6h0l-0.2,0V7.6h0
			c0,0.1,0,0.1-0.1,0.1h-0.1c0,0,0,0,0,0l-0.1,0c0,0-0.1,0-0.1,0c-0.1,0-0.2,0-0.3,0h-0.2V7.6h0c0,0.1,0,0.1-0.1,0.1h-0.1
			c-0.1,0-0.1,0-0.2-0.1v0l0,0.1l-0.1,0l-0.1-0.1h0v0.1c0,0-0.1,0-0.1,0c0,0,0,0-0.1,0l-0.2,0v0.1l-0.1,0h-0.6l-0.1,0.1h0L16,7.7h0
			c0,0,0,0.1,0,0.1c-0.1-0.1-0.2-0.1-0.2-0.1v0.1h-0.1V7.7h-0.1v0.1l-0.1-0.1h-0.1c0,0,0,0,0,0l-0.1,0h0v0.1h-0.1l0-0.1
			c0,0-0.1,0-0.1,0c0,0,0,0.1-0.1,0.1c0,0,0,0,0,0l-0.1,0h0l-0.1-0.1c0,0,0,0,0,0l0,0.1v0h-0.1V7.7h0c0,0-0.1,0.1-0.1,0.1
			c0,0-0.1,0-0.2,0l-0.1,0c0,0-0.1,0-0.1,0h0l-0.1,0.1l-0.2-0.1l-0.1,0.1c0,0,0,0,0,0c0,0,0,0.1-0.1,0.1l-0.1-0.1h0v0.1h-0.1
			l-0.1-0.1c0,0-0.1,0.1-0.2,0.1c-0.3,0-0.4,0-0.4-0.1c0,0-0.1,0.1-0.3,0.1v0l0.2,0c0.2,0,0.5,0.1,0.7,0.1c0,0,0-0.1,0.1-0.1h0
			c0,0,0,0,0,0l0.1,0l0.1,0l0.1,0L14.1,8l0.2-0.1l0.1,0l0.2,0l0.1,0c0,0,0.1,0,0.1,0c0.1,0,0.2,0,0.2,0.1c0,0,0.2,0,0.4-0.1
			c0,0,0.1,0,0.1,0l0.1,0c0,0,0.1,0,0.2,0.1c0,0,0-0.1,0.1-0.1h0.1c0,0,0,0,0,0c0,0,0,0,0,0l0.2,0c0,0,0.1,0,0.1,0l0.1,0l0.1,0
			c0.1,0,0.2,0,0.3,0c0,0,0.1,0,0.1,0c0,0,0.1,0,0.3,0.1V7.9L17.1,8l0.1-0.1L17.3,8l0.1-0.1h0.2c0.1,0,0.3,0,0.3,0.1
			c0,0,0-0.1,0.1-0.1h0.2l0.2,0l0.1,0l0.1,0l0.2,0h0.1V8h0c0-0.1,0-0.1,0.1-0.1H19l0.2,0c0,0,0-0.1,0.1-0.1h0c0,0,0.1,0,0.1,0.1
			l0.1,0h0.3c0,0,0,0,0,0l0.1,0h0.1L20,8H20c0,0,0.2-0.1,0.4-0.1l0,0.1l0.1,0h0.2c0,0,0.1,0,0.1,0.1c0,0,0,0,0,0l0.1,0h0
			c0-0.1,0-0.1,0.1-0.1C20.9,8,20.9,8,21,8h0.1V8H21V7.9c0,0,0.1,0,0.1,0l0.1,0c0,0,0.1,0,0.1,0c0,0,0-0.1,0.1-0.1v0.1
			c0,0,0,0.1-0.1,0.3h0.1c0,0,0,0.1-0.1,0.1l-0.1-0.1h0v0.1h0c0,0-0.1,0-0.1-0.1l-0.1,0h0c0-0.1-0.1-0.1-0.2-0.1v0.1l0,0.1
			c-0.1,0-0.1,0.1-0.1,0.1c0,0,0,0.1,0,0.1h0l0.1,0l0,0.1l-0.4,0.1l0-0.1c0,0,0,0,0,0h0c-0.2,0-0.3,0.1-0.3,0.1c0,0,0,0,0,0
			c0,0,0,0.1-0.1,0.1c0,0,0,0,0,0c-0.3,0-0.4,0-0.4,0.1h-0.2V8.6h-0.1v0.1h0.1c0,0.1-0.1,0.1-0.3,0.1v0h-0.1c0,0.1,0,0.1-0.1,0.1
			c0,0,0-0.1,0-0.1l-0.1,0.1c0,0-0.1,0-0.1,0c0,0-0.1,0-0.1,0V8.7h-0.1l0.1,0.1c0,0,0,0.1-0.1,0.1l-0.1-0.1v0.1c0,0-0.1,0-0.2-0.1
			c0,0.1,0,0.1-0.1,0.1c0,0-0.1-0.1-0.2-0.1c0,0,0,0.1,0,0.1h0.1V9h-0.2c0,0-0.1,0-0.1-0.1c0,0,0,0,0,0l-0.1,0h-0.1
			c0,0.1,0,0.1,0,0.1l-0.1,0h0l0,0.1l-0.1,0c0,0,0-0.1-0.1-0.1c0,0,0,0.1-0.1,0.1c0,0,0-0.1-0.1-0.1h-0.1l0,0.1v0
			c-0.1,0-0.2,0-0.3-0.1C17.1,9,17,9,17,9c0,0,0,0,0,0c0,0,0,0.1,0,0.1c-0.2,0-0.3,0-0.3-0.1h-0.1c0,0-0.1,0.1-0.3,0.1
			c0,0-0.1,0-0.3-0.1c0,0,0,0.1,0,0.1c0,0-0.1,0-0.1,0c0,0.1-0.2,0.1-0.5,0.1v0l0-0.1c-0.2,0-0.3,0.1-0.3,0.1c0-0.1,0-0.1-0.1-0.1h0
			c0,0.1,0,0.1-0.1,0.1h-0.1l-0.1-0.1c0,0-0.1,0.1-0.3,0.1l-0.1,0c0,0-0.1,0-0.1,0c0,0,0,0,0,0c-0.1,0-0.1,0.1-0.2,0.1h-0.1l0,0.2
			c-0.2,0.3-0.3,0.7-0.4,1.3c-0.2,0.4-0.3,0.5-0.3,0.5l-0.5,0.9c-0.2,0.3-0.4,0.5-0.5,0.7c-0.4,0.6-0.8,1.2-1.3,1.6
			c-0.1,0.2-0.4,0.6-1,1c0,0-0.1,0.1-0.2,0.2l-0.1,0l-0.1,0.1c0,0,0.1,0,0.1,0.1c0,0,0,0.1-0.1,0.1l-0.1,0l0,0.1c0,0,0,0,0,0
			c-0.6,0.6-1.2,1-1.6,1.2l-0.1,0c0,0.1-0.1,0.2-0.4,0.3c0,0.1-0.1,0.1-0.4,0.2c-0.2,0.2-0.5,0.3-0.9,0.4c0,0-0.1,0.1-0.2,0.1H6
			v-0.1h0c0,0.1-0.3,0.2-0.8,0.3c0,0-0.1,0-0.3,0.1c0,0,0,0,0,0l-0.2,0H4.6l-0.1-0.1c0,0,0,0.1-0.1,0.1c-0.1,0-0.3,0-0.5,0
			c-0.2,0-0.3,0-0.3-0.1l-0.1,0c-0.3-0.1-0.4-0.2-0.4-0.3l-0.1,0c-0.6-0.5-1-0.9-1-1.1l-0.5-0.7c-0.2-0.4-0.3-0.7-0.3-0.9
			c0,0,0-0.1,0-0.1c0,0,0-0.1,0-0.2h0c0,0,0,0,0,0c0.1-0.5,0.2-0.8,0.3-0.9c0.1-0.2,0.2-0.3,0.3-0.5l0.2-0.2c0,0,0,0,0,0
			c0-0.1,0-0.2,0.1-0.2l0.1,0l0.2-0.3c0,0,0.1,0,0.1,0c0-0.2,0.1-0.3,0.1-0.3h0l0,0.1v0c0,0,0.1-0.1,0.2-0.2l0-0.1l0.1,0
			c0,0,0.1,0,0.1,0l0-0.1v0h0.1c0,0,0,0,0,0l0-0.1c0,0,0.1-0.1,0.2-0.2c0-0.1,0.2-0.2,0.7-0.5c0,0,0.1,0,0.2-0.1h0l0.1,0h0v0H4.1
			c0-0.1,0.1-0.1,0.2-0.1l0.1,0c0,0,0,0,0,0v0l0.1,0l0.1,0c0-0.1,0.1-0.1,0.3-0.1c0,0,0.1,0,0.1,0l0-0.1v0h0c0.1,0,0.2,0,0.2,0.1
			v0.1c-0.1,0-0.4,0.1-0.9,0.4c0,0.1-0.1,0.1-0.2,0.1l0.1,0.1c0,0-0.1,0.1-0.3,0.2h0c0-0.1,0-0.1-0.1-0.1h0c0,0.1-0.1,0.1-0.2,0.3
			H3.3C3.2,13,3,13.2,2.8,13.3c0,0.1-0.1,0.1-0.2,0.2v0.1h0v-0.1h0v0c0,0,0,0.1,0,0.1c0,0-0.2,0.2-0.5,0.6l-0.2,0.4l0,0.1l-0.1,0.2
			v0c0.1,0,0.2-0.2,0.3-0.4c0.3-0.4,0.4-0.6,0.5-0.6c0.3-0.3,0.6-0.6,1-0.9c0.3-0.2,0.5-0.4,0.9-0.5c0.1-0.1,0.3-0.2,0.3-0.2
			c0,0,0,0,0,0c0.3-0.2,0.5-0.3,0.8-0.3c0,0,0.1,0,0.3-0.1v0l0.1,0H6c0.4,0,0.7,0.2,0.9,0.6v0c-0.1,0.1-0.2,0.2-0.3,0.2
			c0,0-0.1,0-0.1,0C6.4,12.9,6.3,13,6.3,13c0,0,0,0.1-0.1,0.1v0l-0.1,0H6c0,0.1-0.2,0.2-0.5,0.3h0c0,0,0,0,0,0
			c-0.3,0.1-0.4,0.2-0.5,0.3c-0.4,0.1-0.8,0.3-1.2,0.8c-0.2,0.1-0.4,0.3-0.4,0.5c-0.1,0-0.3,0.3-0.6,0.9l-0.1,1
			c0,0.1,0.2,0.2,0.7,0.2c0.6,0,1.4-0.2,2.3-0.7c0.3-0.2,0.6-0.4,0.8-0.4L7,15.4c0,0,0.2-0.2,0.4-0.4l0.1,0c0-0.1,0.3-0.4,1-1
			c0.7-0.7,1.3-1.4,1.9-2.2c0.1-0.1,0.3-0.4,0.7-0.9c0.1-0.3,0.3-0.6,0.6-1.1c0,0,0,0,0,0c0.1-0.2,0.2-0.3,0.2-0.5l-0.1,0
			c-0.1,0-0.3,0-0.3,0l-0.1-0.1c0,0,0,0.1-0.1,0.1h-0.4c-0.1,0-0.1,0-0.1,0c0,0-0.1,0-0.1,0c-0.4,0-0.6,0-0.7,0c0,0-0.1,0-0.3,0
			c0,0-0.1,0-0.1,0c-0.2,0-0.3,0-0.4,0H8.9c0,0,0,0,0,0l-0.1,0c0,0,0,0,0,0l-0.1,0h0l-0.2,0l-0.1,0c-0.2,0-0.4-0.1-0.4-0.1L8,9.3
			C7.4,9.2,7,8.9,6.8,8.7C6.6,8.5,6.5,8.1,6.3,7.5h0l0-0.2V7.3C6.2,7.2,6.2,7.1,6.1,6.8h0c0-0.3,0.1-0.6,0.3-0.7
			c0.5-0.6,0.9-0.9,1.2-1C8.3,4.5,9,4.2,9.6,4.1z M4.4,17.3L4.4,17.3c0.1,0,0.1,0,0.1-0.1L4.4,17.3C4.4,17.3,4.4,17.3,4.4,17.3z
			 M7.6,15.6L7.6,15.6c-0.2,0.2-0.3,0.3-0.4,0.3c-0.5,0.4-0.7,0.5-0.9,0.5c0,0.1-0.1,0.1-0.2,0.1c0,0-0.1,0.1-0.4,0.3l-0.1,0h0v0
			h0.1c0,0-0.1,0.1-0.4,0.2l-0.1,0c-0.1,0.1-0.3,0.2-0.6,0.3l0,0.1c0.6-0.1,1.3-0.4,2.2-1c0.1-0.1,0.4-0.4,1.1-0.8
			c1.1-0.9,2-1.9,2.7-2.8c0,0,0.1-0.1,0.3-0.4c0,0,0.1-0.1,0.3-0.3c0.1,0,0.2-0.3,0.5-0.8c0-0.1,0.1-0.1,0.1-0.2
			c0,0-0.2,0.2-0.4,0.5c-0.2,0.4-0.5,0.7-0.8,1l-0.9,1c-0.1,0.2-0.5,0.6-1.2,1.2c0,0-0.1,0.1-0.2,0.2L7.6,15.6z M5.8,11.5
			c0.2,0,0.3,0.1,0.4,0.2l-0.1,0.1h0c0,0-0.1,0-0.1,0c0,0,0,0,0,0l-0.1,0c-0.2,0-0.3,0-0.4,0c0-0.1-0.1-0.2-0.2-0.2v-0.1
			c0,0,0.1,0,0.1,0c0,0,0.1,0,0.1,0C5.7,11.6,5.8,11.5,5.8,11.5z M8.5,8L8.5,8L8.5,8L8.5,8C8.5,7.9,8.5,7.9,8.5,8z M10.8,7.8
			L10.8,7.8L10.8,7.8C10.7,7.9,10.7,7.9,10.8,7.8c-0.2,0.1-0.2,0.1-0.3,0.1H9.6c-0.1,0-0.2,0-0.3,0c0,0-0.1,0-0.1,0L9,7.9
			c0,0-0.1,0-0.1,0l0,0.1C9.1,8,9.2,8,9.2,8l0.1,0h0.4l0.2,0C9.9,8,10,8,10.1,8v0l0.1,0h0.1c0,0,0.1,0,0.1,0c0,0,0.1,0,0.1,0
			s0.1,0,0.1,0c0.1,0,0.2,0,0.2,0L11,8c0,0,0,0,0,0l0.1,0c0.2,0,0.4,0,0.7-0.1v0l0.1,0c0.2,0,0.3,0,0.3,0.1c0.2,0,0.3-0.1,0.3-0.1
			l-0.2-0.1c0,0-0.1,0-0.1,0c0,0,0,0,0,0l-0.2,0h-0.3c0,0-0.1,0-0.1,0c0,0,0,0,0,0l-0.3,0H11c0,0,0,0,0,0C11,7.9,10.9,7.9,10.8,7.8
			L10.8,7.8L10.8,7.8z M16.2,8.9L16.2,8.9l0.1,0v0H16.2z M16.8,8.9L16.8,8.9L16.8,8.9L16.8,8.9C16.8,8.9,16.8,8.9,16.8,8.9z M18,7.6
			L18,7.6c0.1,0,0.1,0,0.1,0v0H18z M18.6,8.3L18.6,8.3C18.6,8.4,18.6,8.4,18.6,8.3L18.6,8.3L18.6,8.3z M18.7,8.7L18.7,8.7L18.7,8.7
			C18.7,8.7,18.7,8.7,18.7,8.7L18.7,8.7z M19.5,8.1C19.5,8.2,19.5,8.2,19.5,8.1L19.5,8.1C19.5,8.1,19.5,8.1,19.5,8.1
			C19.5,8.1,19.5,8.1,19.5,8.1z M19.6,8.4C19.6,8.4,19.6,8.4,19.6,8.4c0.1,0,0.1,0,0.2,0v0C19.7,8.3,19.7,8.3,19.6,8.4
			C19.7,8.3,19.6,8.3,19.6,8.4z M19.9,8.2C19.9,8.2,20,8.2,19.9,8.2c0.1,0.1,0.1,0,0.1,0H19.9z M19.9,8.3L19.9,8.3
			c0,0.1,0,0.1,0,0.2H20L19.9,8.3L19.9,8.3z M20.1,8.4C20.1,8.4,20.1,8.5,20.1,8.4l0.1,0.1v0L20.1,8.4z M20.3,8.3c0,0,0,0.1,0,0.1
			c0,0,0.1,0,0.1,0c0,0,0.1,0,0.1,0v0C20.3,8.4,20.3,8.4,20.3,8.3L20.3,8.3z M20.3,8.1L20.3,8.1L20.3,8.1L20.3,8.1L20.3,8.1z
			 M20.4,8.3l0.1,0.1c0,0,0,0.1,0,0.1c0,0,0.1-0.1,0.2-0.3V8.2C20.6,8.2,20.5,8.3,20.4,8.3z M21,8.4h0.1C21.1,8.5,21.1,8.5,21,8.4
			L21,8.4L21,8.4z M21.1,8.1L21.1,8.1L21.1,8.1C21.2,8.2,21.2,8.1,21.1,8.1L21.1,8.1z M21.5,8.4L21.5,8.4c0,0.1,0,0.1,0,0.1h-0.1
			C21.3,8.5,21.4,8.5,21.5,8.4z M21.5,7.9c0,0,0.1,0,0.1,0v0.2c-0.1,0.1-0.1,0.1-0.1,0.1h0c0,0,0-0.1,0-0.1c0,0-0.1,0-0.1,0V8.1h0.1
			V8.1h-0.1V8L21.5,7.9l0,0.1C21.5,8,21.5,7.9,21.5,7.9z M21.5,8v0.1h0.1C21.6,8.1,21.6,8,21.5,8L21.5,8z M21.7,8v0.2h-0.1L21.7,8
			C21.7,8,21.7,8,21.7,8z"/>
		<path fill="#F1F2F2" d="M15.9,11.5c0.3,0.1,0.6,0.2,0.7,0.4c0.3,0.5,0.5,0.8,0.5,0.8c0,0,0,0.1,0,0.1c0.2,0.3,0.4,0.5,0.8,0.5h0.4
			l1.1-0.2h0.2l0.1,0.1c0,0.1-0.1,0.2-0.1,0.2l0,0.1c0,0-0.2,0.1-0.6,0.2v0l0,0.1c0.2,0,0.3,0,0.4-0.1c0,0,0.1,0,0.1,0h0.1v0
			c-0.1,0.1-0.2,0.2-0.2,0.4c-0.2,0-0.2,0.1-0.2,0.2c-0.1,0.1-0.3,0.2-0.6,0.3c0,0,0,0,0,0l-0.1,0l-0.2,0c-0.4,0-0.5-0.1-0.6-0.2
			l-0.1,0c-0.2-0.2-0.4-0.3-0.5-0.3c-0.2,0.7-0.4,1.3-0.8,1.7c0,0-0.1,0.2-0.2,0.4c-0.1,0.3-0.3,0.6-0.8,1.1c0,0,0,0.1-0.1,0.1
			l0,0.1c0,0-0.2,0.2-0.5,0.5c-0.4,0.4-0.8,0.7-1.2,0.7c0,0,0,0-0.1,0c-0.4,0-0.7-0.3-1.1-0.8c-0.4-0.4-0.6-0.9-0.6-1.4v-0.1
			c0-0.2,0-0.3,0.1-0.3l0-0.2c0.1-0.8,0.6-1.8,1.5-3.1c0.4-0.4,0.6-0.8,0.7-1c0.3-0.3,0.7-0.4,1.1-0.4h0.1c0.1,0.1,0.2,0.3,0.3,0.5
			c0.1,0,0.2,0.2,0.3,0.6c0,0,0,0,0,0c0,0,0.1,0.1,0.1,0.2h0l0,0.1c0,0.1-0.3,0.3-0.7,0.6c-0.6,0.6-0.9,1-0.9,1.2
			c-0.1,0.1-0.2,0.3-0.2,0.3l0,0.1c-0.5,0.9-0.8,1.5-0.8,1.9c0.9-0.6,1.7-1.6,2.3-2.9c0.2-0.2,0.3-0.6,0.5-1.1l0-0.1l0-0.2
			c-0.1-0.3-0.2-0.4-0.2-0.4l0-0.1c0,0-0.1,0-0.1-0.1l0-0.1c-0.1,0-0.2-0.2-0.3-0.6h0l0-0.1C15.5,11.6,15.6,11.5,15.9,11.5z
			 M14,17.5L14,17.5L14,17.5c0.1,0,0.1,0,0.2-0.1v0h0C14.2,17.3,14.1,17.4,14,17.5z M14.5,17c0,0-0.1,0.2-0.2,0.3l0.1,0
			c0.2-0.2,0.3-0.3,0.3-0.3V17H14.5z M14.7,16.7c-0.1,0.1-0.1,0.2-0.1,0.2C14.8,16.9,14.8,16.8,14.7,16.7L14.7,16.7z M14.9,16.6
			L14.9,16.6L14.9,16.6c0.1,0.1,0.1,0,0.1,0v-0.1L14.9,16.6C14.9,16.6,14.9,16.6,14.9,16.6z M15,16.3v0.1h0
			C15.1,16.5,15.1,16.4,15,16.3L15,16.3z M15.3,16c0,0,0,0.1,0,0.1h0.1L15.3,16L15.3,16z"/>
		<path fill="#F1F2F2" d="M19.6,11.8c0.2,0,0.4,0.1,0.6,0.3c0,0.1,0.1,0.1,0.2,0.2l0.3,0.3c0.1,0,0.1,0.2,0.2,0.4l0.1,0
			c0.7-0.5,1.3-0.7,1.7-0.8c0,0,0.3-0.1,1-0.2c0.4,0,0.6,0,0.6,0.1l0,0.1c0,0.1-0.1,0.1-0.4,0.2c0,0,0,0.1,0.1,0.1l0.1,0
			c0.1,0,0.2,0.1,0.2,0.2c-0.2,0.1-0.4,0.3-0.7,0.4c0,0,0,0,0,0c0,0.1-0.1,0.1-0.3,0.2c-0.1,0.1-0.5,0.3-1.2,0.7
			c0,0-0.3,0.2-0.7,0.6c-0.5,0.5-0.8,0.9-0.9,1.2c-0.1,0-0.2,0.2-0.4,0.7c0,0.1-0.1,0.2-0.2,0.3c0,0,0,0.1-0.1,0.1l0,0.1v0
			c-0.1,0.1-0.2,0.3-0.3,0.4l-0.1,0c0,0,0,0,0,0c0,0.1,0,0.2-0.2,0.4c-0.1,0.1-0.2,0.2-0.3,0.2l0,0l0.1,0l-0.2,0.2c0,0,0,0,0,0
			c-0.1,0-0.1,0.1-0.2,0.2c-0.1,0.2-0.2,0.3-0.3,0.3v0l0.1,0l0,0c0,0.1-0.1,0.1-0.4,0.2c-0.1,0-0.1,0-0.1-0.1l0,0
			c0,0.1,0,0.1-0.1,0.1l0-0.1v0l0-0.1c-0.1,0-0.1,0-0.1-0.1c0.5-1,0.7-1.5,0.7-1.7l-0.1,0c0,0.1-0.1,0.4-0.5,0.9
			c0,0.1-0.1,0.2-0.2,0.4c0,0.1-0.1,0.2-0.3,0.3c0,0-0.1,0-0.1-0.1c0,0,0-0.1,0-0.1l-0.1,0c0,0-0.1,0-0.1-0.1v0h0.1l0-0.1H17v0
			c0.5-0.9,0.9-1.8,1.2-2.7c0,0,0.3-0.6,0.8-1.9c0,0,0.2-0.3,0.3-0.7l0.1-0.1c0,0,0.1,0,0.1,0.1c0,0,0.1-0.2,0.1-0.5l-0.1-0.1
			c0,0,0.1,0,0.1-0.1c0,0-0.1-0.1-0.1-0.2l0-0.1c0,0-0.1,0-0.1-0.1C19.4,11.9,19.5,11.8,19.6,11.8z M18.3,16.7c0,0.1,0,0.2-0.1,0.3
			l0.1,0L18.3,16.7L18.3,16.7L18.3,16.7z M18.4,16.4c0,0.1,0,0.1-0.1,0.2l0,0.1l0.1,0C18.4,16.6,18.4,16.5,18.4,16.4L18.4,16.4
			L18.4,16.4z M18.5,16L18.5,16L18.5,16L18.5,16L18.5,16z"/>
		<path fill="#F1F2F2" d="M30.2,4.9h0.1c0.1,0.1,0.2,0.1,0.2,0.3l-0.1,0.1c0.2,0,0.4,0.4,0.5,1.1c-0.1,0.3-0.2,0.7-0.6,1.4
			c-0.2,0.6-0.4,1-0.5,1.1c0,0,0,0.1,0,0.1c-0.1,0.1-0.1,0.2-0.1,0.4l0,0.1c-0.1,0.1-0.1,0.3-0.2,0.6c0,0.4-0.2,0.7-0.4,1.1
			c0,0.2-0.1,0.5-0.4,1c0,0,0,0.1,0,0.1l-0.1,0.6h0c0,0,0,0,0,0l0,0.2c0,0,0,0.1-0.1,0.1c0,0,0,0,0,0c-0.4,1.2-0.6,2-0.6,2.2
			c0,0,0,0.1,0,0.1c0,0.1,0,0.1,0.1,0.1C28,16.3,28,16.7,28,16.7l0,0.1c0,0,0,0,0,0c0,0.4,0.2,0.7,0.7,0.8c0.1,0,0.2,0.1,0.2,0.1
			c0,0,0,0,0,0c0.2,0,0.5,0.1,0.7,0.1h0c0,0,0.1,0,0.1,0.1c-0.1,0.1-0.3,0.2-0.5,0.4c0,0-0.1,0-0.1,0c0,0.1-0.1,0.1-0.2,0.1
			c0,0,0,0.1,0,0.1h0l0.1,0l0,0.1v0.1c-0.2,0-0.3,0.1-0.3,0.1c-0.3,0-0.5-0.1-0.5-0.2c0,0-0.1,0-0.1,0c-0.6-0.3-0.9-0.7-1.1-1.1
			l-0.1,0c-0.1,0-0.2,0.2-0.4,0.5c-0.1,0-0.4,0.2-0.7,0.5H26l-0.1,0c0,0.1-0.2,0.3-0.6,0.4c0,0.2-0.3,0.3-1,0.4
			c-0.4,0-0.8-0.3-1.2-0.9c-0.4-0.7-0.6-1.2-0.6-1.7c0,0,0-0.1,0-0.1l0-0.1c0.1-0.6,0.3-1.1,0.7-1.7c0.2-0.4,0.6-0.9,1.2-1.5
			c0.1-0.1,0.3-0.2,0.4-0.4c0.3-0.2,0.8-0.4,1.4-0.4c0,0,0,0,0,0c0,0,0.1,0,0.1,0c0.6,0,0.9,0,0.9,0.1c0.2,0,0.3-0.1,0.3-0.3h0
			l0-0.1l0.3-1.3c0-0.1,0.1-0.5,0.3-1.2c0-0.4,0.3-1.4,0.8-2.9c0.1-0.1,0.2-0.3,0.3-0.7c0,0,0.2-0.3,0.4-0.8
			C30,4.9,30.1,4.9,30.2,4.9z M23.7,17.3c0.1,0,0.3,0.1,0.4,0.1c0.5-0.1,1.1-0.4,2-1.1c0,0,0.1-0.1,0.4-0.4l0.1,0
			c0,0,0.1-0.1,0.2-0.2c0,0,0,0,0,0l0.1,0c0,0,0,0,0,0c0,0,0-0.1,0.1-0.1v0c0.1-0.6,0.2-1,0.2-1l0-0.1c0-0.2,0.1-0.3,0.1-0.5
			c0,0,0,0,0,0c0,0,0,0,0,0c0,0-0.1,0-0.2,0c-1,0.3-1.7,0.7-2.1,1.2C24.2,16.2,23.8,16.8,23.7,17.3z M26.8,16.4c0,0,0,0.1-0.1,0.1
			c-0.7,0.6-1.2,1-1.4,1.1v0.1c0.4-0.1,0.9-0.5,1.6-1.1l0-0.1L26.8,16.4L26.8,16.4z"/>
		<path fill="#F1F2F2" d="M33.3,12l0.2,0h0.1c0.1,0,0.1,0,0.1,0c0.7,0.1,1.1,0.3,1.1,0.6c0,0-0.1,0-0.1,0.1l0.1,0l0,0.1v0.1h0
			c0.1-0.1,0.2-0.2,0.3-0.2c0.4,0,0.6,0.2,0.6,0.4c0,0,0,0.1,0,0.2c0.2,0,0.3,0.3,0.4,1c0,0.1-0.2,0.4-0.5,0.8
			c-0.5,0.8-0.8,1.4-0.8,2c0,0,0.1,0.1,0.2,0.2c0.4,0.4,0.9,0.5,1.5,0.5h0.2c0.1,0,0.1,0,0.2,0.1c0,0,0.1,0,0.1,0l0.1,0.1l-0.3,0.2
			v0h-0.1c0,0,0,0,0,0c-0.3,0-0.4,0.1-0.4,0.1c0.3,0.1,0.5,0.2,0.5,0.2c-0.3,0.3-0.7,0.4-1,0.4l-0.1,0c0,0-0.1,0-0.1,0
			c-0.5-0.2-0.9-0.6-1.2-1.2l-0.4-0.9l-0.1,0c-0.1,0.2-0.2,0.3-0.2,0.3c0,0.1-0.2,0.3-0.7,0.6c0,0,0,0,0,0c-0.1,0.1-0.3,0.2-0.5,0.3
			c-0.4,0.4-0.8,0.5-1.1,0.5c-0.4,0-0.7-0.4-1.1-1.1C30,17.4,30,17.2,30,17.2c0,0,0,0,0,0c-0.1,0-0.2-0.3-0.4-0.9h0l0-0.1v-0.4
			c0.2-0.8,0.4-1.5,0.7-1.9c0.6-0.6,0.9-0.9,1.1-1c0,0,0-0.1,0.1-0.1l0-0.1C31.8,12.5,32.4,12.2,33.3,12z M30.8,16.9H31
			c0.5-0.2,0.9-0.5,1.2-0.8c0,0,0.3-0.2,0.7-0.6c0.4-0.4,0.6-0.7,0.7-0.7c0,0,0,0,0,0c0.2-0.2,0.4-0.5,0.6-1h0
			c-0.7,0-1.4,0.4-2.1,1.1c-0.7,0.5-1.1,1.1-1.3,1.8C30.8,16.8,30.8,16.9,30.8,16.9z M33.6,15.6c0,0.1-0.2,0.3-0.7,0.7
			c-0.6,0.6-1,0.9-1.4,1.1v0.1c0.4-0.1,1-0.6,1.7-1.3C33.5,16,33.6,15.8,33.6,15.6L33.6,15.6L33.6,15.6z"/>
		<path fill="#F1F2F2" d="M38.1,11.6c0.4,0.1,0.6,0.3,0.6,0.6c0.1,0,0.2,0.2,0.4,0.5l0,0.1c0,0.1,0.1,0.2,0.1,0.2h0l0,0.1L39,13.1
			v0.1c0.8-0.7,1.6-1.1,2.3-1.1h0.3c0,0,0,0,0,0l0.1,0c0.2,0,0.3,0.2,0.6,0.5c0,0.1,0.1,0.2,0.2,0.4c0.1,0.3,0.2,0.6,0.2,0.7v0.2
			c0,0.2-0.3,0.8-0.9,1.9c-0.2,0.5-0.4,0.8-0.4,0.9c-0.1,0-0.3,0.4-0.5,1.2l-0.2,0.3c-0.1,0.3-0.2,0.6-0.3,0.9c0,0,0,0,0,0
			c0.1,0,0.6-0.4,1.6-1.3l0.2-0.2l0.1,0c0,0,0.1-0.1,0.2-0.2c0,0,0,0,0,0c0.1-0.2,0.2-0.3,0.4-0.3v0c0,0,0,0.1-0.1,0.1l0,0.1
			l-0.2,0.2l0,0.1c-0.1,0.1-0.2,0.2-0.3,0.4l0,0.1c-0.2,0.2-0.7,0.7-1.5,1.4h0.1c0.1,0,0.3-0.1,0.6-0.4c0,0,0.1-0.1,0.2-0.2
			c0,0,0.1,0,0.1,0v0.1H42l0,0.1c0,0-0.3,0.3-0.7,0.8c-0.4,0.4-0.7,0.5-0.8,0.5h-0.1c-0.3-0.1-0.6-0.4-1-0.9
			c-0.1-0.1-0.1-0.4-0.1-0.6v-0.1c0-0.4,0.2-1.1,0.7-2.4c0,0,0.1-0.1,0.2-0.4c0.5-1,0.9-1.8,1.1-2.2c0,0,0.1,0,0.1-0.1v-0.2h0
			c-0.9,0.4-1.3,0.8-1.3,1c-0.4,0.4-0.7,0.7-0.7,0.8c-0.1,0-0.5,0.5-1.1,1.5c0,0.1-0.1,0.3-0.4,0.7c-0.2,0.5-0.3,0.8-0.3,0.9
			l-0.2,0.1c-0.1,0-0.2-0.1-0.4-0.2c0,0,0,0,0,0c-0.3-0.2-0.4-0.4-0.4-0.5c-0.1,0-0.2-0.1-0.3-0.2c-0.1,0-0.1-0.1-0.2-0.3h0
			c0-0.1-0.1-0.1-0.1-0.2c0.1-0.1,0.4-0.9,0.9-2.5c0.4-1.2,0.7-2.2,0.9-3.2C38,11.7,38.1,11.6,38.1,11.6z M40.9,19.7L40.9,19.7
			L40.9,19.7c0.1,0,0.1,0,0.1,0v-0.1C41,19.7,40.9,19.7,40.9,19.7z M42.2,18.8L42.2,18.8l-0.1,0.2c0,0-0.1,0-0.1,0
			C42.1,18.9,42.1,18.9,42.2,18.8z"/>
		<path fill="#F1F2F2" d="M48.1,18.3L48.1,18.3l-0.1,0.2v0C48,18.4,48,18.3,48.1,18.3z M48,18.6L48,18.6c0.1,0,0.1,0,0.1,0v0
			L48,18.6L48,18.6z M48.2,18.2L48.2,18.2c0,0,0,0.1,0,0.2h-0.1L48.2,18.2z M52.3,4L52.3,4c0.3,0,0.5,0.2,0.6,0.5v0l-0.1,0.2
			c0.1,0,0.1,0.1,0.2,0.4c0,0,0,0.1,0,0.1c0,0,0.1,0,0.1,0.1v0.1c0,0,0,0,0,0c0,0,0,0,0,0c0,0.3-0.1,0.5-0.3,0.5L52,6.4
			c-0.3,0.2-0.7,0.5-1,0.8c-0.1,0-0.2,0.1-0.2,0.2v0.1c0.6,0.1,1.2,0.2,1.6,0.3c0,0,0,0,0,0L53.2,8l0.1,0L53.8,8c0,0,0.1,0,0.2,0v0
			L54,8h0.2L54.3,8c0,0,0-0.1,0.1-0.1h0.2l0,0.1c0.3,0,0.4,0.1,0.5,0.1c0,0,0.1,0,0.1,0c0,0,0,0.1,0.1,0.1c0-0.1,0-0.1,0.1-0.1
			s0.1,0,0.1,0.1h0c0-0.1,0-0.1,0.1-0.1h0l0.2,0l0-0.1l0.2,0c0,0,0.1,0,0.1,0l0,0.1c0,0,0.1,0,0.2,0v0h0.1V8h0.2c0,0,0,0,0,0l0.1,0
			h0v0.1h0.1C56.8,8,56.9,8,57,8h0.1c0,0,0,0,0,0l0.1,0c0,0,0.1,0,0.1,0c0,0,0,0,0,0v0c0,0.1-0.1,0.1-0.3,0.1c0,0-0.1,0-0.1,0
			c-0.1,0-0.2,0.1-0.2,0.1v0c-0.1,0-0.2,0.1-0.4,0.1c0,0-0.1,0-0.1,0c-0.2,0-0.3,0.1-0.4,0.1c0,0-0.1,0-0.1,0c0,0,0,0.1-0.1,0.1
			l0-0.1l-0.1,0h0c-0.1,0-0.1,0-0.1,0c0,0-0.1,0-0.1,0c0,0,0,0,0,0c0,0,0,0.1-0.1,0.1c0,0,0,0,0,0l-0.1,0h-0.2V8.3h-0.2v0h0.1v0.1
			l-0.2,0v0l-0.1,0c0,0-0.1,0-0.1,0.1v0l0.1,0l0.1,0.1c0.1,0,0.1,0,0.1,0c0.1,0.1,0.2,0.1,0.3,0.1c0.3,0,0.5,0,0.6,0v0l0.1,0l0.2,0
			c0-0.1,0.2-0.1,0.7-0.1c0,0,0,0.1,0.1,0.1c0.2-0.1,0.3-0.1,0.5-0.1l0.1,0l1.1-0.1c0,0,0,0,0,0c0.3,0,0.5-0.1,0.6-0.1l0.2,0.1
			c0,0,0.1-0.1,0.2-0.1c0.1,0,0.1,0,0.1,0.1c0.1,0,0.2-0.1,0.3-0.1h0.8c0,0.1,0,0.1,0.1,0.1l0-0.1c0,0-0.1,0-0.1-0.1
			c0,0,0.1,0,0.1,0l0.1,0c0.1,0,0.1-0.1,0.2-0.1c0,0,0,0,0,0l0.1,0h0.4c0,0,0,0,0,0c0.1,0,0.3-0.1,0.5-0.1l0.2,0.1
			c0-0.1,0-0.1,0-0.1s0,0,0,0c0.2,0,0.4-0.1,0.4-0.1l0.2,0l0,0.1h0.1c0,0,0-0.1,0-0.1h0l0.3,0.1V8.1h0.1l0.1,0.1h0.1l0.1-0.1l0.1,0
			c0,0,0.1,0,0.1,0c0,0.1,0.1,0.1,0.1,0.1h0.1V8.2c0,0,0.1,0,0.1,0.1l0,0.1h0l0.1-0.1c0,0,0,0.1,0.1,0.1l0-0.1c-0.1,0-0.1,0-0.1-0.1
			c0,0,0.1,0,0.1,0c0.1,0,0.2,0,0.2,0c0,0,0,0,0,0c0.1,0,0.2,0,0.4,0.1c0,0,0.1,0,0.1,0c0,0,0,0.1,0.1,0.1c0,0,0.1,0,0.1,0v0l0.1,0
			h0.1v0.1l-0.2,0c0,0,0,0,0,0v0c0,0,0,0.1,0.1,0.1c0,0,0.1,0,0.1,0c0,0,0.1,0,0.1,0c0,0,0-0.1,0-0.1h0v0.1h0.3v0c0,0,0,0.1,0,0.1
			H66l0-0.2h0.1v0.1l0,0.1c0.3,0,0.4,0.1,0.4,0.1c0.1,0,0.2-0.1,0.2-0.1l-0.1-0.1v0.1h-0.2c0,0-0.1,0-0.1-0.1V8.2
			c0.2,0,0.4,0,0.6,0.1l0-0.1l0.2,0l0.1,0c0.1,0,0.1,0.1,0.1,0.1v0.1c-0.1,0-0.1,0-0.1,0.1h0.1v0.1c0,0,0,0.1-0.1,0.1l-0.2,0
			l0.1,0.1c0,0,0,0,0,0h0.1l0.1-0.1c0,0,0.1,0,0.1,0c0,0,0-0.1,0-0.2h0l0.1,0V8.6l-0.2-0.1V8.4c0,0,0.1,0,0.1-0.1h0l0.4,0.2h0
			c0-0.1,0-0.1,0.1-0.1h0c0,0,0.1,0,0.1,0.1c-0.1,0-0.1,0-0.1,0.1v0L68,8.5c0,0,0,0.1,0.1,0.1V8.4h0c0,0,0,0,0,0c0,0,0,0,0,0
			c0.2,0,0.3,0.1,0.3,0.2h0c0-0.1,0-0.1,0.1-0.1c0,0,0.2,0,0.5,0v0.1c0,0,0,0.1-0.1,0.1c0,0,0,0.1,0.1,0.1h0c0-0.1,0-0.1,0.1-0.1
			h0.1c0,0,0.1,0,0.1,0.1v0c-0.1,0-0.1,0-0.1,0.1c0,0,0.1,0,0.1,0.1c0,0,0,0.1-0.1,0.1h0V8.9H69l0,0.1v0c-0.1,0.2-0.2,0.3-0.2,0.3v0
			h0c0,0-0.1,0-0.1-0.1V9.2h0.1v0h-0.2l-0.1,0.1c-0.1,0-0.1-0.1-0.1-0.1L68.6,9c-0.1-0.1-0.2-0.2-0.3-0.3c-0.1,0-0.1,0.1-0.1,0.1
			c0.1,0,0.1,0,0.1,0.1V9h-0.1c0-0.1,0-0.1,0-0.1c0,0-0.1,0-0.1,0l0-0.1c0,0,0.1,0,0.1-0.1c-0.3,0-0.5,0.1-0.5,0.1l0.1,0
			c0,0,0.1,0,0.1,0l0,0.1v0h-0.1l-0.1,0c0,0,0,0.1-0.1,0.1c0,0,0-0.1-0.1-0.1c-0.1,0-0.2,0.1-0.2,0.3l0.1,0h0.1l0-0.1v0l0-0.1
			c0.1,0,0.2,0.1,0.4,0.1c0,0,0.1,0,0.1,0v0.1h-0.2v0.1c0.2,0,0.3,0.1,0.3,0.1c0.1,0,0.1,0,0.2-0.1l0-0.2v0c0,0,0.1,0,0.1,0.1l0,0.1
			l0.2,0c0,0-0.1,0.1-0.2,0.1c0,0,0,0.1,0,0.1l-0.1,0.1l0-0.1c0,0,0,0,0,0c-0.4,0-0.6-0.1-0.6-0.2V9.5c0,0-0.1,0-0.1,0.1
			c0,0,0,0.1,0,0.1c0,0,0,0,0,0c-0.1,0-0.2,0-0.2-0.1c-0.1,0-0.1,0.1-0.2,0.1c0,0,0-0.1-0.1-0.1h-0.1c0,0-0.1,0.1-0.2,0.1h-0.1
			l-0.1-0.1v0l-0.1,0h0c0,0.1-0.1,0.1-0.2,0.1v0l-0.1,0h0l0-0.1V9.6C66,9.6,66,9.7,66,9.8h-0.3c0,0,0,0,0,0c-0.1,0-0.1,0-0.1,0.1
			c-0.2,0-0.4-0.1-0.4-0.1c-0.1,0-0.1,0.1-0.2,0.1h0c0-0.1,0-0.1,0-0.1c-0.1,0-0.1,0.1-0.2,0.1h-0.4l-0.1,0V9.7h0v0c0,0,0,0.1,0,0.1
			h0l-0.2,0c-0.2,0-0.4,0-0.5,0v0l-0.1,0c-0.8,0-1.5,0.1-1.8,0.1l-0.1,0l-0.1,0c-0.9,0-1.6,0.1-1.9,0.1l-0.1,0
			c-0.1,0.1-0.5,0.1-1.2,0.1c0,0-0.8,0.1-2.4,0.2v0c0,0.3,0,0.5-0.1,0.5l0,0.1V11c-0.1,0.2-0.2,0.4-0.3,0.7
			c-0.3,0.6-0.4,0.9-0.5,0.9v0.1c0.6,0,1.1,0,1.5,0h0c0.1,0,0.1,0,0.1,0c0,0,0.1,0,0.1,0h0.2c0,0,0.1,0,0.1,0.1l0.1,0h0.1
			c0,0,0,0,0,0l0.1,0h0.1c0.1,0,0.3,0,0.5,0l0.1,0l0.1,0c0.2,0,0.4,0,0.6,0h0.1l0.2,0v0.1c-0.2,0-0.3,0.1-0.4,0.1V13l0.2,0h0
			c0,0,0.1,0,0.1,0.1v0H59v-0.1h-0.1l0,0.1h-0.1c-0.1,0-0.1-0.1-0.2-0.1l0,0.1v0h-0.1l-0.1-0.1h0c0,0,0,0.1,0,0.1
			c-0.1,0-0.3,0-0.7,0v0c-0.1,0-0.1,0.1-0.2,0.1h-0.1l-0.1-0.1c0,0,0,0.1,0,0.1l-0.1,0c0,0-0.1,0-0.1,0v0l-0.1,0h0v-0.1l-0.2,0.1
			c-0.1,0-0.2,0-0.3,0c-0.1,0-0.1,0.1-0.2,0.1h-0.2c0,0,0,0,0,0l-0.1,0h-0.4l-0.4,0v0c0.2,0,0.3,0,0.3,0c0,0,0.1,0,0.1,0h0
			c0,0,0.1,0,0.1,0.1h0.1c0,0,0-0.1,0.1-0.1c0.3,0,0.4,0.1,0.4,0.1l0.2-0.1l0.1,0c0,0,0.1,0,0.1,0s0,0,0,0l0.2,0h0.2v0.1
			c0,0,0.1,0,0.2-0.1c0.3,0,0.6,0,0.7,0h0.3l0.2,0l0.1,0c0,0,0,0,0,0c0.1,0,0.2,0,0.2,0v0l0,0.1l0.1,0c0,0,0-0.1,0-0.1h0.1v0
			c0,0,0,0.1,0,0.1c0,0,0.1,0,0.1,0.1L58.9,14h-0.5v0.1c0.2,0,0.4,0.1,0.4,0.1v0.1c-0.4,0-0.6,0.1-0.6,0.1c0,0,0-0.1-0.1-0.1h0
			c0,0,0,0.1,0.1,0.1v0.1c-0.1,0-0.2,0-0.2,0l0-0.1c0,0,0,0,0,0h0c0,0-0.1,0-0.1,0.1l-0.2,0c0,0,0,0.1-0.1,0.1h-0.1l-0.2,0
			c0,0.1-0.1,0.1-0.2,0.1h-0.1v-0.1H57l0,0.1l-0.6,0.1l-0.1-0.1l-0.1,0.1h-0.8c-0.2,0-0.4,0-0.7,0c0,0-0.1,0-0.2,0l-0.3,0.1l0-0.1
			l-0.2,0h0c0,0,0,0,0,0c0,0,0,0,0,0l-0.1,0c-0.1,0-0.2,0.1-0.3,0.2h0l-0.1,0c-0.1,0.2-0.1,0.2-0.2,0.2l0,0.1v0
			c-0.1,0.2-0.2,0.3-0.2,0.3c0,0-0.1,0.1-0.2,0.3c-0.1,0-0.2,0.1-0.4,0.3c0,0,0,0,0,0l-0.1,0h0v-0.1h0v0.1h0v0.1
			c-0.1,0-0.1,0.1-0.2,0.2l-0.1,0h0c-0.1,0-0.1,0.1-0.1,0.1v0.1l0.1,0c0,0,0.1,0,0.1,0.1l-0.1,0.1h0v-0.1l-0.2,0l0,0.2h-0.1v-0.1
			h-0.1c0,0,0,0.1,0,0.1v0.2c0,0-0.1,0-0.1,0c0,0-0.1,0.1-0.2,0.1l0,0.1c0,0,0,0.1,0,0.1c0,0-0.1,0-0.1-0.1c0,0-0.1,0-0.1,0.1v0.1
			l-0.1,0l-0.1,0c0,0-0.1,0-0.1,0v0l0-0.1l-0.1,0c0,0.2-0.1,0.2-0.2,0.2c0,0,0-0.1-0.1-0.1c0,0-0.1,0-0.1,0.1c0,0,0,0,0,0
			C50.2,18,50,18.1,50,18.2h-0.1l-0.1,0c0,0.2,0,0.4-0.1,0.4c-0.1,0.1-0.2,0.2-0.3,0.3l0,0.1v0.1h0c0,0-0.1,0-0.1-0.1
			c0-0.1,0.1-0.1,0.3-0.2c0,0,0-0.1,0-0.1l0-0.1c0.1-0.1,0.2-0.2,0.2-0.3l-0.1,0c0,0-0.1,0-0.1,0c0-0.1,0-0.1-0.1-0.1
			c0,0.1,0,0.1,0,0.2c0,0-0.1,0-0.2,0v-0.1h0.1c0-0.1,0.1-0.2,0.2-0.4c0,0-0.1,0-0.1,0c0,0,0-0.1,0.1-0.1c0,0,0,0,0,0v-0.1l0-0.1
			c0.1,0,0.1-0.1,0.2-0.1h0.1c0,0,0-0.1,0-0.1c0.1,0,0.1-0.1,0.2-0.1l0-0.1V17c0.2-0.3,0.4-0.5,0.6-0.7l0.1,0c0-0.1,0-0.1,0.1-0.1
			l0-0.1c0.7-0.9,1.1-1.3,1.1-1.3c0,0,0,0,0,0c0-0.1,0.2-0.4,0.5-0.8c0.3-0.3,0.4-0.6,0.4-0.7h-0.1c0,0.1-0.3,0.5-1,1.3l-0.2,0.2
			l-0.1,0l0,0.1h0.1v0l-0.8,1h0v-0.1h0c0,0.1,0,0.2-0.1,0.2h0.1v0.1l-0.3,0.2l0,0.1v0c-0.5,0.6-0.8,0.8-0.8,0.8l-0.1,0v0
			c0,0,0,0.1,0,0.1c-0.2,0.1-0.2,0.1-0.2,0.2h-0.4c0,0,0,0.1,0,0.2l0.1-0.1H49v0.1c-0.1,0-0.2,0.1-0.2,0.2l-0.1,0h0v0h0.1v0
			c-0.1,0.1-0.1,0.1-0.1,0.1h-0.1v-0.1l0-0.1l-0.1,0c0,0,0,0.1,0,0.1l0,0.2c0,0-0.1,0-0.1,0v0c0,0,0-0.1,0-0.1l-0.1,0
			c0,0-0.1-0.1-0.2-0.2V18c0.1,0,0.2-0.1,0.3-0.3c0,0,0,0,0,0c0-0.1,0.1-0.2,0.1-0.2c0,0,0,0,0,0c0-0.1,0-0.1,0.1-0.2
			c0,0,0.1,0,0.1,0c0,0,0-0.1,0-0.1c0,0,0.2-0.3,0.7-0.8c0.1-0.3,0.3-0.5,0.5-0.6l0.4-0.4c0-0.1,0.1-0.2,0.3-0.4V15h0.1
			c0-0.1,0-0.2,0.1-0.2l0-0.1v0c0.1,0,0.2-0.1,0.2-0.2c0.1,0,0.1,0,0.1,0c0,0,0-0.1,0-0.1c0.1,0,0.2-0.2,0.4-0.5c0.1,0,0.1,0,0.1,0
			l0-0.1l0.9-1.4c0-0.1,0.1-0.2,0.2-0.3c0.4-0.7,0.7-1.2,0.9-1.6v-0.1c-0.4,0-0.6-0.1-0.6-0.1c0,0,0,0,0,0c-0.2,0-0.3,0-0.4-0.1
			l-0.1,0c-0.1,0-0.2-0.1-0.2-0.1l-0.1,0c-0.1,0-0.1-0.1-0.1-0.1c0,0,0,0,0,0c0,0-0.1,0-0.3-0.1c0,0-0.1,0-0.1,0l-0.1-0.1l-0.1,0
			c-0.6-0.2-0.8-0.3-0.8-0.3l-0.1,0c-0.6-0.3-0.9-0.6-0.9-0.8c-0.2-0.4-0.3-0.7-0.4-0.9l0-0.2c0-0.1-0.1-0.2-0.1-0.2
			c0,0,0-0.1,0-0.1c0-0.3-0.1-0.5-0.1-0.7c0,0,0,0,0,0c0-0.1-0.1-0.2-0.1-0.3l0.1,0l0-0.2c0.1-0.5,0.4-0.9,0.9-1.3
			C51,4.5,51.7,4.1,52.3,4z M48.4,18c0,0,0,0.1-0.1,0.1h0.1C48.5,18.1,48.5,18.1,48.4,18L48.4,18L48.4,18z M49,18.5l0.1,0.1v0.1
			L49,18.6h0v0l0.1,0.1v0c0,0-0.1,0.1-0.2,0.1c0-0.1-0.1-0.2-0.1-0.2h-0.2v0c0,0,0-0.1,0.1-0.1l0.2,0h0C48.9,18.6,48.9,18.5,49,18.5
			z M48.6,18.8L48.6,18.8c0.1,0,0.1,0.1,0.2,0.2c0,0,0,0.1,0,0.1h-0.1c0-0.1,0-0.1-0.1-0.1V18.8z M48.9,18.3L48.9,18.3l0,0.1h0
			L48.9,18.3C48.8,18.3,48.9,18.3,48.9,18.3z M49.1,18.1L49.1,18.1L49.1,18.1c0,0.1,0,0.1,0,0.1H49C49,18.2,49,18.1,49.1,18.1z
			 M49.4,18.2h0.1v0.1c-0.1,0.1-0.2,0.1-0.3,0.1l0.1,0.1c0,0,0,0.1-0.1,0.1c0-0.1,0-0.2-0.1-0.2v-0.1h0.2l0.1,0v0
			C49.3,18.3,49.3,18.3,49.4,18.2L49.4,18.2z M49.1,17.4L49.1,17.4L49.1,17.4c0.1,0.1,0.1,0,0.1,0H49.1z M49.2,18h0.1
			C49.3,18,49.3,18,49.2,18L49.2,18z M49.6,16.8c0,0,0.1,0.1,0.2,0.1v-0.1l-0.1,0C49.7,16.8,49.6,16.8,49.6,16.8z M49.7,17.5v0.2
			c0,0,0.1,0,0.1-0.1C49.7,17.6,49.7,17.5,49.7,17.5L49.7,17.5z M49.7,18h0.1V18L49.7,18C49.7,18,49.7,18,49.7,18z M50.3,16.8l0,0.1
			C50.3,16.9,50.3,16.9,50.3,16.8L50.3,16.8L50.3,16.8z M50.6,8L50.6,8c0.2,0.1,0.7,0.3,1.6,0.5l0-0.1c-0.7-0.2-1-0.3-1-0.3
			c0,0-0.1,0-0.1,0C51,8.1,50.8,8,50.6,8L50.6,8z M50.8,17.7L50.8,17.7L50.8,17.7c0,0.1,0,0.1-0.2,0.2v0
			C50.7,17.8,50.7,17.7,50.8,17.7z M50.8,17.4L50.8,17.4L50.8,17.4l0.1,0c0,0,0,0,0,0v0c0,0,0-0.1,0-0.1L50.8,17.4
			C50.9,17.4,50.8,17.4,50.8,17.4z M50.9,17.2c0,0,0,0.1,0,0.1h0L50.9,17.2L50.9,17.2z M51.7,16.8L51.7,16.8l0.1,0.1h-0.1V16.8z
			 M52.3,8.3c0,0,0,0.1,0,0.1h0.1c0,0,0.6,0.1,1.8,0.1c0.1,0,0.2-0.1,0.3-0.2c0,0,0,0,0,0l-0.3,0.1l0-0.1c0,0-0.1,0-0.1,0l-0.1,0
			l-0.1,0l-0.1,0l-0.1,0l-0.1,0c0,0-0.1,0-0.1,0c0,0,0,0,0,0c0,0-0.1,0-0.1,0l-0.1,0c0,0-0.1,0-0.1,0v0l-0.1,0h-0.1
			c-0.1,0-0.1,0-0.1,0l-0.1,0C52.4,8.4,52.3,8.3,52.3,8.3z M53.5,12.1l-0.1,0.3C53.5,12.4,53.5,12.3,53.5,12.1L53.5,12.1L53.5,12.1z
			 M53.7,11.9c0,0,0,0.1-0.1,0.1c0,0,0,0.1,0.1,0.1C53.7,12,53.7,12,53.7,11.9L53.7,11.9z M56,8.2c0.1,0,0.1-0.1,0.1-0.1h0
			C56.1,8.1,56.1,8.2,56,8.2z M57.7,7.9c0,0,0.1,0,0.1,0.1h0L57.7,7.9c0,0.1,0,0.1,0,0.1L57.7,7.9L57.7,7.9z M58.3,14v0.2h0
			C58.3,14.1,58.3,14,58.3,14L58.3,14z M58.3,7.9L58.3,7.9c0.1,0,0.1,0,0.1,0.1L58.3,7.9L58.3,7.9z M58.7,13.6c0,0,0,0.1,0,0.1h0.1
			L58.7,13.6L58.7,13.6z M58.8,7.9h0.1C58.9,8,58.9,8,58.8,7.9L58.8,7.9L58.8,7.9z M59.5,7.8h0.2c0,0,0,0,0,0l0.1,0
			c0,0,0.1,0,0.1,0.1l-0.1,0h0l-0.1-0.1h0l-0.1,0.1L59.5,7.8L59.5,7.8z M60,7.8L60,7.8c0.1,0,0.1,0,0.1,0.1l-0.1,0h0V7.8z M61.6,8.3
			L61.6,8.3c0,0,0.1,0,0.1,0v0H61.6z M63.2,8.2L63.2,8.2c0.1,0.1,0.1,0.1,0.1,0.2c0.1,0,0.1-0.1,0.1-0.2H63.2z M63.3,8.4l0,0.2h0
			L63.3,8.4L63.3,8.4z M63.4,8.9v0.1h0C63.4,9,63.4,9,63.4,8.9L63.4,8.9z M63.4,8.4L63.4,8.4l0.1,0V8.3h0
			C63.5,8.4,63.4,8.4,63.4,8.4z M63.6,8.2v0.1c0,0,0.1,0,0.1,0V8.2h0C63.7,8.2,63.7,8.2,63.6,8.2z M64.1,8.3v0.1
			C64.1,8.4,64.2,8.4,64.1,8.3L64.1,8.3L64.1,8.3z M65.1,9.5L65.1,9.5c0,0.1,0,0.1,0.1,0.1h0c0,0,0-0.1,0-0.2
			C65.2,9.5,65.1,9.5,65.1,9.5z M65.4,8.4L65.4,8.4L65.4,8.4c0.1,0.1,0.1,0,0.1,0H65.4z M65.4,8.5C65.4,8.6,65.4,8.6,65.4,8.5h0.1
			H65.4z M65.7,8.5L65.7,8.5c0.1,0.1,0.1,0.1,0.1,0.1l0-0.1v0c0,0-0.1,0-0.1,0C65.7,8.5,65.7,8.5,65.7,8.5z M65.9,8.5L65.9,8.5
			L66,8.6C66,8.5,66,8.5,65.9,8.5L65.9,8.5z M66.1,8.4L66.1,8.4c0.1,0.1,0.1,0.1,0.1,0.1h0v0c0,0-0.1,0-0.1-0.1H66.1z M66.4,8.7v0.1
			C66.4,8.8,66.4,8.8,66.4,8.7L66.4,8.7z M66.7,9.1L66.7,9.1c0,0.1,0.1,0.2,0.3,0.2V9.3c0,0-0.1-0.1-0.2-0.2H66.7z M66.9,7.9H67v0.1
			L66.9,7.9L66.9,7.9z M66.9,8.7L66.9,8.7c0,0.1,0,0.1,0.1,0.1L66.9,8.7L66.9,8.7z M67,8.4v0.1H67L67,8.4C67,8.4,67,8.4,67,8.4z
			 M67.1,8.9L67.1,8.9c0,0.1,0,0.1,0,0.2c0,0-0.1,0-0.1,0.1v0.1h0c0.1,0,0.1-0.1,0.1-0.2C67.1,9,67.1,8.9,67.1,8.9z M67.2,9.2
			L67.2,9.2L67.2,9.2C67.3,9.2,67.2,9.2,67.2,9.2z M67.3,9.4L67.3,9.4c0,0.1,0,0.1,0,0.1h0.1V9.5C67.3,9.5,67.3,9.4,67.3,9.4
			L67.3,9.4z M67.4,8.9C67.4,8.9,67.4,8.9,67.4,8.9c0.1,0,0.2,0,0.2,0V8.8h-0.1C67.4,8.8,67.4,8.8,67.4,8.9z M67.4,8.4v0.1h0.1V8.4
			H67.4z M67.6,8.5L67.6,8.5l0,0.1c0,0,0.1,0,0.2,0v0L67.6,8.5z M67.7,8.6L67.7,8.6L67.7,8.6C67.8,8.6,67.8,8.6,67.7,8.6z M67.7,9.6
			l0.2,0h0v0c-0.1,0-0.1,0-0.1-0.1L67.7,9.6C67.8,9.6,67.7,9.6,67.7,9.6z M68.1,9L68.1,9c0.1,0,0.1,0,0.1,0l0,0.1l-0.1,0.1l-0.2,0
			V9.1C67.9,9.1,68,9.1,68.1,9z M68.1,8.5L68.1,8.5l0,0.1h0l-0.1,0v0.1h0.1l0.1-0.1c0,0,0,0,0,0V8.5l-0.1,0
			C68.2,8.5,68.2,8.5,68.1,8.5z M68.6,9.5L68.6,9.5L68.6,9.5l0,0.2c0,0-0.1,0-0.1-0.1C68.6,9.6,68.6,9.6,68.6,9.5z M68.6,9
			c0,0,0,0.1,0,0.1h0L68.6,9L68.6,9z M68.7,8.7L68.7,8.7L68.7,8.7l0.1-0.1C68.7,8.6,68.7,8.6,68.7,8.7z M68.8,9L68.8,9
			c0,0.1,0,0.1,0.1,0.1h0.1v0C68.9,9,68.9,9,68.8,9L68.8,9z M68.9,9.5c0,0,0.1,0,0.1,0v0.1h-0.1L68.9,9.5L68.9,9.5z M69.1,9.2
			L69.1,9.2c0.1,0,0.1,0.1,0.1,0.1v0.1c0,0,0,0.1-0.1,0.1c0,0-0.1,0-0.1-0.1C69.1,9.3,69.1,9.2,69.1,9.2z M69.4,9.2c0,0,0,0.1,0,0.2
			c0,0-0.1,0-0.1,0c0,0,0,0.1-0.1,0.1V9.2C69.3,9.2,69.4,9.2,69.4,9.2z M69.4,8.8c0.2,0,0.2,0,0.3,0.1h0.1v0c0,0,0,0.1-0.1,0.1
			c-0.2,0-0.2-0.1-0.2-0.1c0,0,0,0,0,0C69.4,8.9,69.3,8.9,69.4,8.8L69.4,8.8z M69.5,8.7C69.5,8.7,69.5,8.7,69.5,8.7h0.1h0v0.1
			L69.5,8.7L69.5,8.7z M69.6,9.2C69.7,9.2,69.7,9.3,69.6,9.2l0.2,0H70v0.1h0l-0.1-0.1c0,0,0,0.1-0.1,0.1l-0.2,0L69.6,9.2
			C69.6,9.3,69.6,9.2,69.6,9.2z M70.1,9L70.1,9L70.1,9h0.2c0,0,0,0.1-0.1,0.1L70.1,9C70.1,9.1,70,9.1,70,9.2c-0.1,0-0.2,0-0.2,0V9.1
			C69.8,9.1,70,9.1,70.1,9z M70.2,9.3L70.2,9.3l0.1,0.1h-0.1L70.2,9.3C70.1,9.3,70.1,9.3,70.2,9.3z"/>
		<path fill="#F1F2F2" d="M61.9,11.5c0.3,0.1,0.6,0.2,0.7,0.4c0.3,0.5,0.5,0.8,0.5,0.8c0,0,0,0.1,0,0.1c0.2,0.3,0.4,0.5,0.8,0.5h0.4
			l1.1-0.2h0.2l0.1,0.1c0,0.1-0.1,0.2-0.1,0.2l0,0.1c0,0-0.2,0.1-0.6,0.2v0l0,0.1c0.2,0,0.3,0,0.4-0.1c0,0,0.1,0,0.1,0h0.1v0
			c-0.1,0.1-0.2,0.2-0.2,0.4c-0.2,0-0.2,0.1-0.2,0.2c-0.1,0.1-0.3,0.2-0.6,0.3c0,0,0,0,0,0l-0.1,0l-0.2,0c-0.4,0-0.5-0.1-0.6-0.2
			l-0.1,0c-0.2-0.2-0.4-0.3-0.5-0.3c-0.2,0.7-0.4,1.3-0.8,1.7c0,0-0.1,0.2-0.2,0.4c-0.1,0.3-0.3,0.6-0.8,1.1c0,0,0,0.1-0.1,0.1
			l0,0.1c0,0-0.2,0.2-0.5,0.5c-0.4,0.4-0.8,0.7-1.2,0.7c0,0,0,0-0.1,0c-0.4,0-0.7-0.3-1.1-0.8c-0.4-0.4-0.6-0.9-0.6-1.4v-0.1
			c0-0.2,0-0.3,0.1-0.3l0-0.2c0.1-0.8,0.6-1.8,1.5-3.1c0.4-0.4,0.6-0.8,0.7-1c0.3-0.3,0.7-0.4,1.1-0.4h0.1c0.1,0.1,0.2,0.3,0.3,0.5
			c0.1,0,0.2,0.2,0.3,0.6c0,0,0,0,0,0c0,0,0.1,0.1,0.1,0.2h0l0,0.1c0,0.1-0.3,0.3-0.7,0.6c-0.6,0.6-0.9,1-0.9,1.2
			c-0.1,0.1-0.2,0.3-0.2,0.3l0,0.1c-0.5,0.9-0.8,1.5-0.8,1.9c0.9-0.6,1.7-1.6,2.3-2.9c0.2-0.2,0.3-0.6,0.5-1.1l0-0.1l0-0.2
			c-0.1-0.3-0.2-0.4-0.2-0.4l0-0.1c0,0-0.1,0-0.1-0.1l0-0.1c-0.1,0-0.2-0.2-0.3-0.6h0l0-0.1C61.4,11.6,61.6,11.5,61.9,11.5z
			 M60,17.5L60,17.5L60,17.5c0.1,0,0.1,0,0.2-0.1v0h0C60.1,17.3,60,17.4,60,17.5z M60.4,17c0,0-0.1,0.2-0.2,0.3l0.1,0
			c0.2-0.2,0.3-0.3,0.3-0.3V17H60.4z M60.7,16.7c-0.1,0.1-0.1,0.2-0.1,0.2C60.7,16.9,60.7,16.8,60.7,16.7L60.7,16.7z M60.8,16.6
			L60.8,16.6L60.8,16.6c0.1,0.1,0.1,0,0.1,0v-0.1L60.8,16.6C60.8,16.6,60.8,16.6,60.8,16.6z M61,16.3v0.1h0C61,16.5,61,16.4,61,16.3
			L61,16.3z M61.2,16c0,0,0,0.1,0,0.1h0.1L61.2,16L61.2,16z"/>
		<path fill="#F1F2F2" d="M65.5,11.8c0.2,0,0.4,0.1,0.6,0.3c0,0.1,0.1,0.1,0.2,0.2l0.3,0.3c0.1,0,0.1,0.2,0.2,0.4l0.1,0
			c0.7-0.5,1.3-0.7,1.7-0.8c0,0,0.3-0.1,1-0.2c0.4,0,0.6,0,0.6,0.1l0,0.1c0,0.1-0.1,0.1-0.4,0.2c0,0,0,0.1,0.1,0.1l0.1,0
			c0.1,0,0.2,0.1,0.2,0.2c-0.2,0.1-0.4,0.3-0.7,0.4c0,0,0,0,0,0c0,0.1-0.1,0.1-0.3,0.2c-0.1,0.1-0.5,0.3-1.2,0.7
			c0,0-0.3,0.2-0.7,0.6c-0.5,0.5-0.8,0.9-0.9,1.2c-0.1,0-0.2,0.2-0.4,0.7c0,0.1-0.1,0.2-0.2,0.3c0,0,0,0.1-0.1,0.1l0,0.1v0
			c-0.1,0.1-0.2,0.3-0.3,0.4l-0.1,0c0,0,0,0,0,0c0,0.1,0,0.2-0.2,0.4c-0.1,0.1-0.2,0.2-0.3,0.2l0,0l0.1,0l-0.2,0.2c0,0,0,0,0,0
			c-0.1,0-0.1,0.1-0.2,0.2c-0.1,0.2-0.2,0.3-0.3,0.3v0l0.1,0l0,0c0,0.1-0.1,0.1-0.4,0.2c-0.1,0-0.1,0-0.1-0.1l0,0
			c0,0.1,0,0.1-0.1,0.1l0-0.1v0l0-0.1c-0.1,0-0.1,0-0.1-0.1c0.5-1,0.7-1.5,0.7-1.7L64,17c0,0.1-0.1,0.4-0.5,0.9
			c0,0.1-0.1,0.2-0.2,0.4c0,0.1-0.1,0.2-0.3,0.3c0,0-0.1,0-0.1-0.1c0,0,0-0.1,0-0.1l-0.1,0c0,0-0.1,0-0.1-0.1v0H63l0-0.1h-0.1v0
			c0.5-0.9,0.9-1.8,1.2-2.7c0,0,0.3-0.6,0.8-1.9c0,0,0.2-0.3,0.3-0.7l0.1-0.1c0,0,0.1,0,0.1,0.1c0,0,0.1-0.2,0.1-0.5l-0.1-0.1
			c0,0,0.1,0,0.1-0.1c0,0-0.1-0.1-0.1-0.2l0-0.1c0,0-0.1,0-0.1-0.1C65.3,11.9,65.4,11.8,65.5,11.8z M64.2,16.7c0,0.1,0,0.2-0.1,0.3
			l0.1,0L64.2,16.7L64.2,16.7L64.2,16.7z M64.3,16.4c0,0.1,0,0.1-0.1,0.2l0,0.1l0.1,0C64.3,16.6,64.3,16.5,64.3,16.4L64.3,16.4
			L64.3,16.4z M64.4,16L64.4,16L64.4,16L64.4,16L64.4,16z"/>
		<path fill="#F1F2F2" d="M72.8,12.3c0.6,0.1,1.1,0.4,1.3,0.7c0,0,0.1,0.2,0.2,0.5l0,0.1c0.1,0,0.1,0.1,0.1,0.3c0.1,0,0.1,0.4,0,1.2
			c-0.1,0.4-0.4,0.8-0.9,1.1c-0.8,0.4-1.3,0.5-1.3,0.5c0,0,0,0.1-0.1,0.1l-0.1,0c-0.1,0-0.3,0-0.7,0c0,0-0.1-0.1-0.2-0.2
			c-0.3-0.3-0.4-0.6-0.5-0.9c-0.1-0.1-0.1-0.2-0.1-0.3l0-0.1l-0.1,0c-0.3,0.3-0.5,0.5-0.5,0.6c0,0.1-0.1,0.2-0.3,0.4
			c0,0.1-0.1,0.2-0.2,0.3c0,0,0,0.1,0,0.1l0,0c0,0.3,0.2,0.5,0.4,0.7c0.2,0.1,0.3,0.2,0.5,0.2l0.1,0c0.6,0.1,1.4-0.1,2.6-0.6
			c0,0,0,0,0,0c0-0.1,0.1-0.1,0.4-0.2l0.2,0l0-0.1l0.1,0.1c0.1-0.1,0.4-0.2,0.8-0.3l0.1,0c0,0,0,0,0,0l0,0.1c0,0-0.1,0-0.1,0.1v0.2
			c-0.4,0.3-1,0.5-1.7,0.8c0,0.1-0.1,0.1-0.3,0.1l0,0.1c0.1,0,0.3-0.1,0.7-0.2c0.1,0,0.4-0.1,0.9-0.3c0.2-0.1,0.3-0.1,0.3-0.1v0
			c-0.1,0.1-0.3,0.3-0.6,0.5c0,0.1-0.1,0.2-0.4,0.3c-0.1,0.1-0.2,0.1-0.3,0.2c-0.4,0.3-0.9,0.5-1.5,0.6c0,0.1-0.3,0.1-0.9,0.2
			l-0.1,0c0,0,0,0,0,0c0,0-0.1,0-0.3,0l0,0l-0.1,0l0,0c-0.6-0.1-1-0.6-1.2-1.6c-0.2-0.6-0.3-1.2-0.2-1.9c0.1-0.8,0.7-1.6,1.5-2.4
			c1.1-0.6,1.9-0.9,2.5-0.8L72.8,12.3z M71.1,14.6L71.1,14.6l0.2,0.1l0,0c0.4,0.1,0.9-0.1,1.5-0.4l0.1-0.1l0-0.1l-0.4-0.1
			C71.6,14.2,71.2,14.4,71.1,14.6z M71.7,12.9L71.7,12.9L71.7,12.9c0.2,0,0.3,0,0.4,0l0-0.1C71.8,12.8,71.7,12.9,71.7,12.9z"/>
		<path fill="#F1F2F2" d="M77.2,11.8c0.1,0,0.2,0.1,0.3,0.4v0l0,0.1c0.1,0,0.2,0.1,0.3,0.4l0,0.1l0,0.2c0,0-0.1,0.1-0.1,0.2h0
			c0.3-0.2,0.6-0.4,1-0.7c0.3-0.2,0.7-0.3,1.3-0.4l0,0.1l0.1,0h0c0.3,0,0.6,0.3,0.9,0.8h0l0,0.1c0.1,0.2,0.1,0.3,0.1,0.3h0
			c0,0,0.2-0.2,0.6-0.6c0.5-0.4,1-0.7,1.5-0.7h0.1c0.3,0.2,0.4,0.4,0.4,0.5c0.2,0.3,0.3,0.5,0.3,0.8c0,0.4-0.1,0.8-0.4,1.2
			c-0.2,0.5-0.4,0.8-0.6,1c0,0.1-0.1,0.3-0.2,0.5c0,0,0,0,0,0c-0.2,0.3-0.4,0.8-0.6,1.4v0.1h0.1c0.5-0.2,1-0.5,1.5-1.1l0.1,0
			c0,0,0.2-0.1,0.4-0.2c0,0,0,0,0,0c0-0.1,0-0.1,0.1-0.1c0,0,0.1,0,0.1,0.1l-0.1,0l0,0.1v0.1c-0.1,0-0.1,0.1-0.1,0.1
			c0,0,0,0.1,0,0.1l-0.1,0l-0.1,0v0c0,0,0,0.1,0,0.1c-0.1,0-0.3,0.2-0.6,0.5c-0.2,0.1-0.4,0.3-0.4,0.4h0l0.7-0.5h0
			c0,0,0,0.1,0.1,0.1v0c0,0,0,0.1-0.1,0.1l0,0.1v0h0l-0.1,0l0,0.1h0.1c-0.2,0.1-0.2,0.2-0.2,0.3c0,0-0.2,0.1-0.6,0.4
			c-0.3,0.3-0.6,0.5-1,0.5c-0.3-0.2-0.5-0.4-0.7-0.7c-0.3-0.3-0.5-0.6-0.5-1l0-0.1l0-0.2c0.1-0.3,0.1-0.5,0.2-0.5l0-0.1v0
			c0,0,0-0.1,0.1-0.1l0-0.1v0c0.3-0.6,0.4-1,0.5-1.1h0l0-0.1c0.1-0.1,0.2-0.2,0.2-0.4l-0.1,0c0,0.1-0.2,0.3-0.5,0.6
			c-0.1,0.2-0.3,0.5-0.6,0.8c0,0.1-0.1,0.3-0.4,0.7c-0.2,0.4-0.4,0.8-0.6,1.3l-0.1,0.1h-0.2c-0.4-0.3-0.6-0.5-0.6-0.7
			c-0.2-0.1-0.2-0.2-0.2-0.2l0-0.1c-0.1,0-0.2-0.1-0.2-0.3V17c0.1-0.1,0.2-0.4,0.3-0.7c0.1-0.4,0.3-0.7,0.4-0.8c0,0,0,0,0,0
			c0,0,0-0.1,0-0.1l0-0.1v-0.1c0.1-0.1,0.2-0.2,0.2-0.5c0,0,0.1,0,0.1-0.1l0-0.1c0.1-0.2,0.2-0.5,0.3-0.9v-0.1c0,0-0.3,0.2-0.9,0.5
			c-1,1-1.5,1.6-1.6,1.6c-0.3,0.3-0.5,0.5-0.6,0.8l-0.8,1.3l-0.2,0.1c-0.3-0.2-0.4-0.3-0.5-0.3c0,0,0-0.1-0.1-0.3v-0.1l-0.1,0
			c-0.1,0-0.3-0.2-0.5-0.5c0.3-0.3,0.6-1,1.1-2.1c0-0.1,0.1-0.3,0.3-0.7c0.3-0.5,0.5-1.2,0.8-2C76.7,11.9,76.8,11.9,77.2,11.8z
			 M81.3,14.2L81.3,14.2l0.1,0v0L81.3,14.2C81.3,14.1,81.3,14.2,81.3,14.2z M81.6,13.9L81.6,13.9L81.6,13.9c0.1,0,0.1,0,0.1,0v0
			L81.6,13.9C81.6,13.8,81.6,13.9,81.6,13.9z M81.7,13.8h0.1v-0.1C81.8,13.7,81.7,13.7,81.7,13.8z M82,13.4v0.1h0
			c0,0,0.1-0.1,0.2-0.2h-0.1C82.1,13.4,82,13.4,82,13.4z M82.3,13.2L82.3,13.2c0.1,0,0.2,0,0.2-0.1v0h-0.1
			C82.3,13.1,82.3,13.2,82.3,13.2z"/>
		<path fill="#F1F2F2" d="M88.7,12l0.2,0H89c0.1,0,0.1,0,0.1,0c0.7,0.1,1.1,0.3,1.1,0.6c0,0-0.1,0-0.1,0.1l0.1,0l0,0.1v0.1h0
			c0.1-0.1,0.2-0.2,0.3-0.2c0.4,0,0.6,0.2,0.6,0.4c0,0,0,0.1,0,0.2c0.2,0,0.3,0.3,0.4,1c0,0.1-0.2,0.4-0.5,0.8
			c-0.5,0.8-0.8,1.4-0.8,2c0,0,0.1,0.1,0.2,0.2c0.4,0.4,0.9,0.5,1.5,0.5H92c0.1,0,0.1,0,0.2,0.1c0,0,0.1,0,0.1,0l0.1,0.1L92,18.3v0
			h-0.1c0,0,0,0,0,0c-0.3,0-0.4,0.1-0.4,0.1c0.3,0.1,0.5,0.2,0.5,0.2c-0.3,0.3-0.7,0.4-1,0.4l-0.1,0c0,0-0.1,0-0.1,0
			c-0.5-0.2-0.9-0.6-1.2-1.2l-0.4-0.9l-0.1,0c-0.1,0.2-0.2,0.3-0.2,0.3c0,0.1-0.2,0.3-0.7,0.6c0,0,0,0,0,0c-0.1,0.1-0.3,0.2-0.5,0.3
			c-0.4,0.4-0.8,0.5-1.1,0.5c-0.4,0-0.7-0.4-1.1-1.1c-0.1-0.2-0.1-0.3-0.1-0.4c0,0,0,0,0,0c-0.1,0-0.2-0.3-0.4-0.9h0l0-0.1v-0.4
			c0.2-0.8,0.4-1.5,0.7-1.9c0.6-0.6,0.9-0.9,1.1-1c0,0,0-0.1,0.1-0.1l0-0.1C87.2,12.5,87.8,12.2,88.7,12z M86.2,16.9h0.2
			c0.5-0.2,0.9-0.5,1.2-0.8c0,0,0.3-0.2,0.7-0.6c0.4-0.4,0.6-0.7,0.7-0.7c0,0,0,0,0,0c0.2-0.2,0.4-0.5,0.6-1h0
			c-0.7,0-1.4,0.4-2.1,1.1c-0.7,0.5-1.1,1.1-1.3,1.8C86.2,16.8,86.2,16.9,86.2,16.9z M89,15.6c0,0.1-0.2,0.3-0.7,0.7
			c-0.6,0.6-1,0.9-1.4,1.1v0.1c0.4-0.1,1-0.6,1.7-1.3C88.9,16,89,15.8,89,15.6L89,15.6L89,15.6z"/>
		<path fill="#F1F2F2" d="M93.5,11.6c0.4,0.1,0.6,0.3,0.6,0.6c0.1,0,0.2,0.2,0.4,0.5l0,0.1c0,0.1,0.1,0.2,0.1,0.2h0l0,0.1l-0.1,0.1
			v0.1c0.8-0.7,1.6-1.1,2.3-1.1H97c0,0,0,0,0,0l0.1,0c0.2,0,0.3,0.2,0.6,0.5c0,0.1,0.1,0.2,0.2,0.4c0.1,0.3,0.2,0.6,0.2,0.7v0.2
			c0,0.2-0.3,0.8-0.9,1.9c-0.2,0.5-0.4,0.8-0.4,0.9c-0.1,0-0.3,0.4-0.5,1.2l-0.2,0.3c-0.1,0.3-0.2,0.6-0.3,0.9c0,0,0,0,0,0
			c0.1,0,0.6-0.4,1.6-1.3l0.2-0.2l0.1,0c0,0,0.1-0.1,0.2-0.2c0,0,0,0,0,0c0.1-0.2,0.2-0.3,0.4-0.3v0c0,0,0,0.1-0.1,0.1l0,0.1
			l-0.2,0.2l0,0.1C98,17.9,98,18,97.9,18.1l0,0.1c-0.2,0.2-0.7,0.7-1.5,1.4h0.1c0.1,0,0.3-0.1,0.6-0.4c0,0,0.1-0.1,0.2-0.2
			c0,0,0.1,0,0.1,0v0.1h-0.1l0,0.1c0,0-0.3,0.3-0.7,0.8c-0.4,0.4-0.7,0.5-0.8,0.5h-0.1c-0.3-0.1-0.6-0.4-1-0.9
			c-0.1-0.1-0.1-0.4-0.1-0.6v-0.1c0-0.4,0.2-1.1,0.7-2.4c0,0,0.1-0.1,0.2-0.4c0.5-1,0.9-1.8,1.1-2.2c0,0,0.1,0,0.1-0.1v-0.2h0
			c-0.9,0.4-1.3,0.8-1.3,1c-0.4,0.4-0.7,0.7-0.7,0.8c-0.1,0-0.5,0.5-1.1,1.5c0,0.1-0.1,0.3-0.4,0.7c-0.2,0.5-0.3,0.8-0.3,0.9
			l-0.2,0.1c-0.1,0-0.2-0.1-0.4-0.2c0,0,0,0,0,0c-0.3-0.2-0.4-0.4-0.4-0.5c-0.1,0-0.2-0.1-0.3-0.2c-0.1,0-0.1-0.1-0.2-0.3h0
			c0-0.1-0.1-0.1-0.1-0.2c0.1-0.1,0.4-0.9,0.9-2.5c0.4-1.2,0.7-2.2,0.9-3.2C93.3,11.7,93.5,11.6,93.5,11.6z M96.3,19.7L96.3,19.7
			L96.3,19.7c0.1,0,0.1,0,0.1,0v-0.1C96.3,19.7,96.3,19.7,96.3,19.7z M97.6,18.8L97.6,18.8l-0.1,0.2c0,0-0.1,0-0.1,0
			C97.4,18.9,97.5,18.9,97.6,18.8z"/>
	</g>
</g>
</svg>
